<svg xmlns="http://www.w3.org/2000/svg" fill="#fff" viewBox="0 0 20 20">
<path d="M 18.808594 8.214844 L 2.671875 1.519531 C 1.992188 1.238281 1.226562 1.363281 0.667969 1.84375 C 0.113281 2.324219 -0.121094 3.070312 0.0625 3.78125 L 1.648438 10 L 0.0625 16.21875 C -0.121094 16.929688 0.113281 17.675781 0.667969 18.15625 C 1.226562 18.636719 1.992188 18.761719 2.671875 18.480469 L 18.808594 11.785156 C 19.542969 11.480469 20 10.796875 20 10 C 20 9.203125 19.542969 8.519531 18.808594 8.214844 Z M 18.359375 10.703125 L 2.222656 17.398438 C 1.953125 17.507812 1.65625 17.460938 1.433594 17.269531 C 1.214844 17.078125 1.125 16.792969 1.195312 16.507812 L 2.707031 10.585938 L 8.53125 10.585938 C 8.851562 10.585938 9.117188 10.324219 9.117188 10 C 9.117188 9.675781 8.851562 9.414062 8.53125 9.414062 L 2.707031 9.414062 L 1.195312 3.492188 C 1.125 3.207031 1.214844 2.921875 1.433594 2.730469 C 1.65625 2.539062 1.953125 2.492188 2.222656 2.601562 L 18.359375 9.296875 C 18.792969 9.480469 18.828125 9.882812 18.828125 10 C 18.828125 10.117188 18.792969 10.519531 18.359375 10.703125 Z M 18.359375 10.703125 "/>
</svg>
